<svg fill="none" height="40" viewBox="0 0 122 40" width="122" xmlns="http://www.w3.org/2000/svg"><g fill="#fff"><path d="m11.6445 20.0984-6.51665 6.6636v9.3505h-5.12785v-36.1125h5.12785v20.2058l19.44305-20.2058h5.8757l-15.2767 16.2292 16.345 19.8833h-5.9825z"/><path d="m68.9054 33.2107 2.0298-3.8692c2.3503 1.6121 5.9825 2.7944 9.5079 2.7944 4.5937 0 6.4098-1.3972 6.4098-3.7617 0-6.1263-17.1997-.8598-17.1997-11.7151 0-4.944 4.3801-8.16832 11.324-8.16832 3.5254 0 7.585.9673 9.9352 2.47202l-2.1366 3.8692c-2.4571-1.6122-5.1278-2.1496-7.7986-2.1496-4.2732 0-6.4098 1.6122-6.4098 3.7617 0 6.4487 17.1997 1.1823 17.1997 11.8226 0 4.944-4.4869 8.0608-11.7513 8.0608-4.3801.1075-8.8669-1.2897-11.1104-3.1168z"/><path d="m122 19.5609v16.5516h-4.701v-3.6543c-1.602 2.472-4.7 3.8692-8.973 3.8692-6.196 0-10.0423-3.3318-10.0423-8.0608 0-4.4066 2.7773-7.9534 10.8963-7.9534h7.799v-.9673c0-4.1916-2.457-6.5561-7.264-6.5561-3.205 0-6.517 1.1822-8.654 2.9019l-2.0295-3.7618c2.7775-2.25699 6.8375-3.54672 11.2175-3.54672 7.585.10748 11.751 3.76172 11.751 11.17772zm-4.914 8.1683v-3.8692h-7.585c-4.914 0-6.303 1.9346-6.303 4.1916 0 2.687 2.243 4.4066 5.982 4.4066 3.739.1075 6.731-1.5047 7.906-4.729z"/><path d="m53.0946 28.9118v7.3085l3.0981-1.8272v-7.3084z"/><path d="m61.641 19.9909-12.7128-7.416-7.0508-4.08412-6.9439 12.14502.1068 11.3926 12.6059 7.416 1.282-.7523v-10.7478l5.662-9.9955 5.7688 3.3318v10.7478l1.282-.7523z"/></g></svg>