<svg fill="none" height="14" viewBox="0 0 14 14" width="14" xmlns="http://www.w3.org/2000/svg"><path d="m7.43233 1.3376c-.13456-.27927-.41889-.456985-.73116-.456985-.31226 0-.59406.177715-.73116.456985l-1.63241 3.3588-3.645629.53822c-.304649.0457-.558523.25896-.6524569.55091-.0939334.29196-.0177713.61439.2005609.83019l2.645365 2.61748-.62453 3.699c-.05077.3046.07616.6144.3275.7946.25134.1803.58391.2031.85809.0584l3.25721-1.739 3.2572 1.739c.27419.1447.60679.1244.85809-.0584s.3783-.49.3275-.7946l-.6271-3.699 2.6454-2.61748c.2183-.2158.297-.53823.2006-.83019-.0965-.29195-.3478-.50521-.6525-.55091l-3.64816-.53822z" fill="#ff6060"/></svg>